<?xml version="1.0" encoding="UTF-8"?>
<svg xmlns="http://www.w3.org/2000/svg" xmlns:xlink="http://www.w3.org/1999/xlink" width="48pt" height="48pt" viewBox="0 0 48 48" version="1.1">
<defs>
<filter id="alpha" filterUnits="objectBoundingBox" x="0%" y="0%" width="100%" height="100%">
  <feColorMatrix type="matrix" in="SourceGraphic" values="0 0 0 0 1 0 0 0 0 1 0 0 0 0 1 0 0 0 1 0"/>
</filter>
<mask id="mask0">
  <g filter="url(#alpha)">
<rect x="0" y="0" width="48" height="48" style="fill:rgb(0%,0%,0%);fill-opacity:0.101961;stroke:none;"/>
  </g>
</mask>
<clipPath id="clip1">
  <rect x="0" y="0" width="48" height="48"/>
</clipPath>
<g id="surface5" clip-path="url(#clip1)">
<path style=" stroke:none;fill-rule:nonzero;fill:rgb(0%,0%,0%);fill-opacity:1;" d="M 24 5.132812 C 15.664062 5.132812 7.902344 7.574219 1.382812 11.777344 C -0.101562 12.730469 -0.445312 14.757812 0.621094 16.160156 L 22.132812 44.496094 C 23.070312 45.730469 24.929688 45.730469 25.867188 44.496094 C 30.105469 38.910156 40.617188 25.066406 47.378906 16.160156 C 48.445312 14.753906 48.101562 12.730469 46.617188 11.777344 C 40.097656 7.574219 32.335938 5.132812 24 5.132812 Z M 24 5.132812 "/>
</g>
<mask id="mask1">
  <g filter="url(#alpha)">
<rect x="0" y="0" width="48" height="48" style="fill:rgb(0%,0%,0%);fill-opacity:0.0509804;stroke:none;"/>
  </g>
</mask>
<clipPath id="clip2">
  <rect x="0" y="0" width="48" height="48"/>
</clipPath>
<g id="surface8" clip-path="url(#clip2)">
<path style=" stroke:none;fill-rule:nonzero;fill:rgb(0%,0%,0%);fill-opacity:1;" d="M 24 10.507812 C 16.640625 10.507812 9.792969 12.6875 4.066406 16.4375 C 5.257812 18.667969 7.605469 20.183594 10.308594 20.183594 C 13.074219 20.183594 15.472656 18.589844 16.632812 16.273438 C 17.402344 16.5625 18.238281 16.722656 19.109375 16.722656 C 19.660156 16.722656 20.191406 16.65625 20.707031 16.539062 C 20.925781 20.246094 24 23.1875 27.761719 23.1875 C 30.601562 23.1875 33.050781 21.511719 34.175781 19.097656 C 35.265625 19.785156 36.554688 20.183594 37.9375 20.183594 C 40.59375 20.183594 42.90625 18.71875 44.113281 16.558594 C 38.351562 12.734375 31.433594 10.507812 24 10.507812 Z M 24 10.507812 "/>
</g>
<mask id="mask2">
  <g filter="url(#alpha)">
<rect x="0" y="0" width="48" height="48" style="fill:rgb(0%,0%,0%);fill-opacity:0.101961;stroke:none;"/>
  </g>
</mask>
<clipPath id="clip3">
  <rect x="0" y="0" width="48" height="48"/>
</clipPath>
<g id="surface11" clip-path="url(#clip3)">
<path style=" stroke:none;fill-rule:nonzero;fill:rgb(0%,0%,0%);fill-opacity:1;" d="M 19.25 32.808594 C 19.25 33.195312 18.9375 33.507812 18.550781 33.507812 C 18.164062 33.507812 17.851562 33.195312 17.851562 32.808594 C 17.851562 32.421875 18.164062 32.109375 18.550781 32.109375 C 18.9375 32.109375 19.25 32.421875 19.25 32.808594 Z M 19.25 32.808594 "/>
<path style=" stroke:none;fill-rule:nonzero;fill:rgb(0%,0%,0%);fill-opacity:1;" d="M 26.015625 37.632812 C 26.015625 38.019531 25.703125 38.332031 25.316406 38.332031 C 24.929688 38.332031 24.617188 38.019531 24.617188 37.632812 C 24.617188 37.246094 24.929688 36.933594 25.316406 36.933594 C 25.703125 36.933594 26.015625 37.246094 26.015625 37.632812 Z M 26.015625 37.632812 "/>
<path style=" stroke:none;fill-rule:nonzero;fill:rgb(0%,0%,0%);fill-opacity:1;" d="M 29.777344 29.3125 C 29.777344 29.699219 29.464844 30.011719 29.078125 30.011719 C 28.691406 30.011719 28.375 29.699219 28.375 29.3125 C 28.375 28.925781 28.691406 28.613281 29.078125 28.613281 C 29.464844 28.613281 29.777344 28.925781 29.777344 29.3125 Z M 29.777344 29.3125 "/>
<path style=" stroke:none;fill-rule:nonzero;fill:rgb(0%,0%,0%);fill-opacity:1;" d="M 38.878906 18.804688 C 38.878906 19.191406 38.5625 19.503906 38.179688 19.503906 C 37.792969 19.503906 37.476562 19.191406 37.476562 18.804688 C 37.476562 18.417969 37.792969 18.105469 38.179688 18.105469 C 38.5625 18.105469 38.878906 18.417969 38.878906 18.804688 Z M 38.878906 18.804688 "/>
<path style=" stroke:none;fill-rule:nonzero;fill:rgb(0%,0%,0%);fill-opacity:1;" d="M 21.824219 14.949219 C 21.824219 15.332031 21.511719 15.648438 21.125 15.648438 C 20.738281 15.648438 20.425781 15.332031 20.425781 14.949219 C 20.425781 14.5625 20.738281 14.246094 21.125 14.246094 C 21.511719 14.246094 21.824219 14.5625 21.824219 14.949219 Z M 21.824219 14.949219 "/>
<path style=" stroke:none;fill-rule:nonzero;fill:rgb(0%,0%,0%);fill-opacity:1;" d="M 9.632812 20.414062 C 9.632812 20.800781 9.320312 21.113281 8.933594 21.113281 C 8.546875 21.113281 8.234375 20.800781 8.234375 20.414062 C 8.234375 20.027344 8.546875 19.714844 8.933594 19.714844 C 9.320312 19.714844 9.632812 20.027344 9.632812 20.414062 Z M 9.632812 20.414062 "/>
</g>
</defs>
<g id="surface1">
<path style=" stroke:none;fill-rule:nonzero;fill:rgb(96.078431%,72.54902%,43.137255%);fill-opacity:1;" d="M 24 5.132812 C 15.664062 5.132812 7.902344 7.574219 1.382812 11.777344 C -0.101562 12.730469 -0.445312 14.757812 0.621094 16.160156 L 22.132812 44.496094 C 23.070312 45.730469 24.929688 45.730469 25.867188 44.496094 C 30.105469 38.910156 40.617188 25.066406 47.378906 16.160156 C 48.445312 14.753906 48.101562 12.730469 46.617188 11.777344 C 40.097656 7.574219 32.335938 5.132812 24 5.132812 Z M 24 5.132812 "/>
<use xlink:href="#surface5" mask="url(#mask0)"/>
<path style=" stroke:none;fill-rule:nonzero;fill:rgb(97.647059%,93.72549%,81.960784%);fill-opacity:1;" d="M 37.9375 6.039062 C 35.097656 6.039062 32.652344 7.714844 31.527344 10.128906 C 30.4375 9.445312 29.148438 9.042969 27.761719 9.042969 C 27.214844 9.042969 26.679688 9.109375 26.167969 9.226562 C 25.949219 5.519531 22.875 2.578125 19.109375 2.578125 C 16.34375 2.578125 13.945312 4.171875 12.785156 6.488281 C 12.015625 6.199219 11.179688 6.039062 10.308594 6.039062 C 6.402344 6.039062 3.234375 9.207031 3.234375 13.113281 C 3.234375 17.019531 6.402344 20.183594 10.308594 20.183594 C 13.074219 20.183594 15.472656 18.589844 16.632812 16.273438 C 17.402344 16.5625 18.238281 16.722656 19.109375 16.722656 C 19.660156 16.722656 20.191406 16.65625 20.707031 16.539062 C 20.925781 20.246094 24 23.1875 27.761719 23.1875 C 30.601562 23.1875 33.050781 21.511719 34.175781 19.097656 C 35.265625 19.785156 36.554688 20.183594 37.9375 20.183594 C 41.84375 20.183594 45.011719 17.019531 45.011719 13.113281 C 45.011719 9.207031 41.84375 6.039062 37.9375 6.039062 Z M 37.9375 6.039062 "/>
<use xlink:href="#surface8" mask="url(#mask1)"/>
<path style=" stroke:none;fill-rule:nonzero;fill:rgb(96.078431%,72.54902%,43.137255%);fill-opacity:1;" d="M 24 11.976562 C 16.050781 11.976562 8.722656 14.632812 2.851562 19.097656 L 22.132812 44.496094 C 23.070312 45.730469 24.929688 45.730469 25.867188 44.496094 C 29.664062 39.496094 38.492188 27.867188 45.148438 19.097656 C 39.277344 14.632812 31.949219 11.976562 24 11.976562 Z M 24 11.976562 "/>
<path style=" stroke:none;fill-rule:nonzero;fill:rgb(22.352941%,25.098039%,28.627451%);fill-opacity:1;" d="M 25.265625 23.96875 C 24.785156 23.96875 24.34375 23.796875 24 23.507812 C 23.65625 23.796875 23.214844 23.96875 22.734375 23.96875 C 21.648438 23.96875 20.765625 23.085938 20.765625 22.003906 C 20.765625 21.613281 21.082031 21.300781 21.46875 21.300781 C 21.859375 21.300781 22.171875 21.613281 22.171875 22.003906 C 22.171875 22.3125 22.425781 22.5625 22.734375 22.5625 C 23.042969 22.5625 23.296875 22.3125 23.296875 22.003906 C 23.296875 21.613281 23.613281 21.300781 24 21.300781 C 24.386719 21.300781 24.703125 21.613281 24.703125 22.003906 C 24.703125 22.3125 24.953125 22.5625 25.265625 22.5625 C 25.574219 22.5625 25.828125 22.3125 25.828125 22.003906 C 25.828125 21.613281 26.140625 21.300781 26.53125 21.300781 C 26.917969 21.300781 27.234375 21.613281 27.234375 22.003906 C 27.234375 23.085938 26.351562 23.96875 25.265625 23.96875 Z M 25.265625 23.96875 "/>
<path style=" stroke:none;fill-rule:nonzero;fill:rgb(22.352941%,25.098039%,28.627451%);fill-opacity:1;" d="M 16.167969 22.707031 C 15.777344 22.707031 15.464844 22.390625 15.464844 22.003906 L 15.464844 20.625 C 15.464844 20.238281 15.777344 19.921875 16.167969 19.921875 C 16.554688 19.921875 16.871094 20.238281 16.871094 20.625 L 16.871094 22.003906 C 16.871094 22.390625 16.554688 22.707031 16.167969 22.707031 Z M 16.167969 22.707031 "/>
<path style=" stroke:none;fill-rule:nonzero;fill:rgb(89.019608%,38.823529%,48.235294%);fill-opacity:1;" d="M 17.25 25.21875 L 15.082031 25.21875 C 14.695312 25.21875 14.378906 24.902344 14.378906 24.515625 C 14.378906 24.128906 14.695312 23.8125 15.082031 23.8125 L 17.25 23.8125 C 17.636719 23.8125 17.953125 24.128906 17.953125 24.515625 C 17.953125 24.902344 17.636719 25.21875 17.25 25.21875 Z M 17.25 25.21875 "/>
<path style=" stroke:none;fill-rule:nonzero;fill:rgb(89.019608%,38.823529%,48.235294%);fill-opacity:1;" d="M 32.917969 25.21875 L 30.75 25.21875 C 30.359375 25.21875 30.046875 24.902344 30.046875 24.515625 C 30.046875 24.128906 30.359375 23.8125 30.75 23.8125 L 32.917969 23.8125 C 33.304688 23.8125 33.621094 24.128906 33.621094 24.515625 C 33.621094 24.902344 33.304688 25.21875 32.917969 25.21875 Z M 32.917969 25.21875 "/>
<path style=" stroke:none;fill-rule:nonzero;fill:rgb(22.352941%,25.098039%,28.627451%);fill-opacity:1;" d="M 31.832031 22.707031 C 31.445312 22.707031 31.128906 22.390625 31.128906 22.003906 L 31.128906 20.625 C 31.128906 20.238281 31.445312 19.921875 31.832031 19.921875 C 32.222656 19.921875 32.535156 20.238281 32.535156 20.625 L 32.535156 22.003906 C 32.535156 22.390625 32.222656 22.707031 31.832031 22.707031 Z M 31.832031 22.707031 "/>
<use xlink:href="#surface11" mask="url(#mask2)"/>
</g>
</svg>
